<?xml version="1.0" encoding="UTF-8" standalone="no"?>
<svg width="1280" height="640" viewBox="0 0 1280 640" fill="none" xmlns="http://www.w3.org/2000/svg">
    <!-- Background -->
    <rect width="1280" height="640" fill="#1a237e"/>
    
    <!-- Decorative Elements -->
    <circle cx="200" cy="320" r="300" fill="#3949ab" opacity="0.5"/>
    <circle cx="1080" cy="320" r="300" fill="#3949ab" opacity="0.5"/>
    
    <!-- Main Content -->
    <g transform="translate(440, 180)">
        <!-- Music Note Icon -->
        <path d="M400 120c0 66.3-53.7 120-120 120s-120-53.7-120-120 53.7-120 120-120 120 53.7 120 120zm-223.8-30.1c14.2-2.1 28.3-4.7 41.9-7.9v-1.8c0-1.1-.9-2-2-2h-22.9c-1.1 0-2 .9-2 2v1.8c-13.6 3.2-27.7 5.8-41.9 7.9-.7.1-1.2.7-1.2 1.4v38.8c0 .7.5 1.3 1.2 1.4 14.2 2.1 28.3 4.7 41.9 7.9v-1.8c0-1.1.9-2 2-2h22.9c1.1 0 2 .9 2 2v1.8c13.6-3.2 27.7-5.8 41.9-7.9.7-.1 1.2-.7 1.2-1.4v-38.8c0-.7-.5-1.3-1.2-1.4z" fill="#e8eaf6"/>
        
        <!-- Title -->
        <text x="200" y="50" font-family="Arial, sans-serif" font-size="48" font-weight="bold" fill="#e8eaf6" text-anchor="middle">Mood Based Music Player</text>
        
        <!-- Subtitle -->
        <text x="200" y="100" font-family="Arial, sans-serif" font-size="24" fill="#c5cae9" text-anchor="middle">Smart Music for Every Mood</text>
    </g>
    
    <!-- Features -->
    <g transform="translate(340, 400)">
        <text x="300" y="40" font-family="Arial, sans-serif" font-size="20" fill="#c5cae9" text-anchor="middle">😊 Real-time Mood Detection</text>
        <text x="300" y="80" font-family="Arial, sans-serif" font-size="20" fill="#c5cae9" text-anchor="middle">🎵 Dynamic Playlist Generation</text>
        <text x="300" y="120" font-family="Arial, sans-serif" font-size="20" fill="#c5cae9" text-anchor="middle">🎨 Interactive Visualization</text>
    </g>
    
    <!-- GitHub Link -->
    <text x="640" y="580" font-family="Arial, sans-serif" font-size="18" fill="#c5cae9" text-anchor="middle">github.com/MrPrince419/mood-based-music-player</text>
</svg>
